<?xml version="1.0" encoding="iso-8859-1"?>
<!-- Generator: Adobe Illustrator 19.0.0, SVG Export Plug-In . SVG Version: 6.00 Build 0)  -->
<svg version="1.1" id="Layer_1" xmlns="http://www.w3.org/2000/svg" xmlns:xlink="http://www.w3.org/1999/xlink" x="0px" y="0px"
	 viewBox="0 0 512.001 512.001" style="enable-background:new 0 0 512.001 512.001;" xml:space="preserve">
<g>
	<g>
		<path d="M345.119,204.881c-8.023-8.022-19.777-11.98-33.049-13.898c1.373-3.406,2.65-6.83,3.787-10.253
			c6.612-19.67,9.886-39.842,10.007-61.694c0.062-21.788-3.084-41.997-9.604-61.747c-3.425-10.505-7.973-20.954-13.533-31.081
			c-2.877-5.207-6.172-10.457-9.751-15.543l-0.192-0.273C288.208,3.907,280.725,0.024,272.767,0c-0.024,0-0.045,0-0.068,0
			c-7.931,0-15.404,3.838-19.937,10.185l-0.186,0.258c-3.639,5.104-6.959,10.327-9.879,15.547
			c-5.59,10.05-10.185,20.462-13.645,30.911c-6.618,19.731-9.851,39.916-9.88,61.729c0.003,2.648,0.072,5.279,0.173,7.905
			c-0.291-0.296-0.576-0.595-0.869-0.89c-15.413-15.436-31.952-27.463-50.53-36.748c-9.857-4.972-20.46-9.099-31.537-12.271
			c-5.719-1.623-11.755-2.974-17.905-4.01l-0.22-0.036v-0.001c-7.822-1.303-15.842,1.272-21.457,6.906
			c-5.617,5.638-8.169,13.675-6.83,21.5c0.004,0.018,0.022,0.122,0.025,0.14l0.03,0.178c1.074,6.209,2.454,12.27,4.11,18.035
			c3.214,11.094,7.382,21.73,12.367,31.584c9.361,18.668,21.414,35.232,36.862,50.657c15.501,15.397,32.062,27.386,50.596,36.633
			c4.913,2.475,10.031,4.749,15.293,6.799c-1.778,6.485-2.675,13.181-2.675,20.011c0,8.316,1.355,16.455,3.962,24.181
			c-23.315-6.153-36.893-16.322-36.893-24.181c0-2.744,1.586-5.689,4.714-8.756c3.895-3.82,3.957-10.074,0.137-13.97
			c-3.821-3.898-10.075-3.954-13.97-0.137c-6.96,6.824-10.639,14.732-10.639,22.864c0,26.847,39.901,47.385,94.05,49.244
			c0.399,0.014,0.797,0.029,1.196,0.041c2.258,0.066,4.531,0.111,6.836,0.111c58.198,0,102.084-21.235,102.084-49.396
			c0-2.076,0.025-4.216,0.05-6.396C358.336,240.685,358.593,218.357,345.119,204.881z M247.796,63.15
			c3.085-9.311,7.179-18.582,12.158-27.534c2.557-4.572,5.488-9.181,8.709-13.699l-8.043-5.735l8.152,5.581
			c1.243-1.741,2.987-2.005,3.925-2.005c0.005,0,0.01,0,0.014,0c0.937,0.003,2.691,0.27,3.88,1.953l0.184,0.262
			c3.211,4.564,6.124,9.201,8.645,13.764c4.958,9.027,9.014,18.337,12.067,27.708c5.855,17.738,8.675,35.902,8.62,55.506
			c-0.109,19.688-3.045,37.837-8.989,55.515c-0.717,2.159-1.506,4.314-2.328,6.465c-4.431-7.368-9.433-17.641-12.645-30.292
			c-2.425-9.551-3.635-19.987-3.7-31.88c-0.033-11.415,1.153-22.003,3.629-32.371c1.267-5.307-2.007-10.637-7.314-11.904
			c-5.315-1.268-10.637,2.009-11.904,7.315c-2.844,11.91-4.207,24.018-4.169,37.044c0.074,13.541,1.483,25.532,4.307,36.658
			c3.52,13.862,8.893,25.342,13.914,33.968c-8.948,0.568-17.216-4.094-21.09-11.912l-0.594-1.191
			c-3.782-7.554-8.015-14.769-12.73-21.717c-2.342-11.537-3.55-23.648-3.566-36.018C238.959,99.006,241.855,80.868,247.796,63.15z
			 M338.378,258.399c-0.026,2.258-0.051,4.473-0.051,6.623c0,12.084-32.072,29.637-82.326,29.637c-1.752,0-3.499-0.026-5.24-0.07
			c-0.369-0.009-0.731-0.025-1.099-0.036c-1.44-0.045-2.877-0.099-4.306-0.173c-0.287-0.014-0.572-0.032-0.857-0.047
			c-1.647-0.092-3.286-0.2-4.916-0.332c-0.033-0.003-0.067-0.005-0.1-0.008c-1.791-0.146-3.572-0.316-5.339-0.51
			c-5.103-8.607-7.781-18.362-7.781-28.461c0-7.668,1.527-15.103,4.538-22.1c1.097-2.547,1.071-5.439-0.068-7.967
			c-1.139-2.529-3.29-4.461-5.926-5.326c-7.681-2.52-15.094-5.57-22.065-9.082c-16.654-8.309-31.545-19.098-45.508-32.97
			c-13.907-13.885-24.748-28.773-33.161-45.547c-4.448-8.791-8.16-18.276-11.026-28.17c-1.454-5.059-2.673-10.417-3.625-15.925
			c-0.004-0.021-0.024-0.129-0.026-0.149l-0.025-0.14c-0.362-2.125,0.693-3.555,1.354-4.219c0.66-0.663,2.077-1.714,4.198-1.363
			c0.047,0.008,0.119,0.021,0.167,0.028c5.474,0.922,10.799,2.113,15.803,3.533c9.863,2.825,19.302,6.497,28.087,10.929
			c16.675,8.334,31.531,19.146,45.398,33.032c13.894,13.987,24.715,28.911,33.103,45.669l0.541,1.083
			c0.519,1.049,1.088,2.059,1.686,3.047h-4.534c-0.582,0-1.171-0.028-1.751-0.082c-1.662-0.154-3.258-0.511-4.738-1.058
			c-6.478-2.393-12.722-5.376-18.562-8.865c-8.456-5.053-16.682-11.598-25.128-19.989c-8.092-8.077-14.733-16.434-20.306-25.542
			c-2.848-4.655-8.931-6.12-13.583-3.271c-4.654,2.848-6.12,8.928-3.271,13.583c6.399,10.46,13.988,20.015,23.216,29.23
			c9.62,9.555,19.084,17.061,28.938,22.95c6.882,4.111,14.233,7.623,21.851,10.439c3.099,1.143,6.382,1.882,9.755,2.196
			c1.183,0.111,2.388,0.166,3.579,0.166h36.758c2.102,0.167,4.237,0.183,6.392,0.033c1.3-0.09,2.62-0.137,3.923-0.137
			c11.668,0,38.995,0,48.805,9.809c2.59,2.59,4.259,6.287,5.347,10.608h-14.966c-5.457,0-9.879,4.423-9.879,9.879
			c0,5.456,4.422,9.879,9.879,9.879h16.885C338.445,252.297,338.412,255.387,338.378,258.399z"/>
	</g>
</g>
<g>
	<g>
		<circle cx="269.173" cy="239.338" r="9.879"/>
	</g>
</g>
<g>
	<g>
		<path d="M360.393,187.876c-5.31-1.29-10.644,1.969-11.93,7.271c-1.288,5.302,1.968,10.643,7.271,11.93
			c59.442,14.424,97.849,41.046,97.849,67.826c0,19.266-19.965,38.871-54.776,53.79c-37.983,16.278-88.699,25.243-142.806,25.243
			s-104.824-8.965-142.806-25.243c-34.811-14.919-54.776-34.524-54.776-53.79c0-21.173,24.475-42.874,65.469-58.05
			c5.117-1.894,7.729-7.577,5.835-12.694c-1.894-5.117-7.575-7.733-12.694-5.835c-50.536,18.707-78.369,45.904-78.369,76.579
			c0,27.95,23.706,53.503,66.751,71.95c8.972,3.845,18.591,7.304,28.747,10.363v85.632c0,21.839,14.479,40.719,40.77,53.16
			c21.796,10.313,50.588,15.994,81.072,15.994s59.276-5.681,81.072-15.994c26.292-12.441,40.77-31.321,40.77-53.16v-85.633
			c10.154-3.059,19.775-6.518,28.746-10.361c43.047-18.448,66.753-44,66.753-71.95C473.341,237.568,431.116,205.035,360.393,187.876
			z M358.083,442.845c0.001,32.086-52.595,49.397-102.083,49.397c-49.488,0-102.084-17.312-102.084-49.396v-52.308
			c5.063,4.315,11.071,8.256,17.994,11.781c1.436,0.731,2.966,1.077,4.473,1.077c3.597,0,7.067-1.973,8.811-5.401
			c2.475-4.862,0.54-10.81-4.322-13.285c-8.925-4.544-19.092-11.585-23.997-21.533c30.254,6.868,64.068,10.513,99.124,10.513
			c35.077,0,68.909-3.649,99.176-10.525c-11.672,24.039-56.574,36.869-99.176,36.869c-12.807,0-25.367-1.104-37.33-3.28
			c-5.376-0.984-10.51,2.584-11.489,7.951c-0.976,5.368,2.583,10.511,7.951,11.489c13.129,2.388,26.876,3.599,40.867,3.599
			c30.484,0,59.276-5.681,81.072-15.995c8.173-3.867,15.203-8.358,21.012-13.364V442.845z"/>
	</g>
</g>
<g>
</g>
<g>
</g>
<g>
</g>
<g>
</g>
<g>
</g>
<g>
</g>
<g>
</g>
<g>
</g>
<g>
</g>
<g>
</g>
<g>
</g>
<g>
</g>
<g>
</g>
<g>
</g>
<g>
</g>
</svg>
